<?xml version="1.0" encoding="utf-8"?>
<!-- Generator: Adobe Illustrator 16.0.0, SVG Export Plug-In . SVG Version: 6.00 Build 0)  -->
<!DOCTYPE svg PUBLIC "-//W3C//DTD SVG 1.1//EN" "http://www.w3.org/Graphics/SVG/1.1/DTD/svg11.dtd">
<svg version="1.1" id="Layer_1" xmlns="http://www.w3.org/2000/svg" xmlns:xlink="http://www.w3.org/1999/xlink" x="0px" y="0px"
	 width="612.189px" height="447.517px" viewBox="0 0 612.189 447.517" enable-background="new 0 0 612.189 447.517"
	 xml:space="preserve">
<path fill="#F2F4F6" d="M180.452,447.517c0,0-19.95-0.62-54.775-16.844c-10.234-4.768-22.611-8.45-26.5-19.05
	c-5.704-15.549,8.978-30.507,13.672-46.39c7.666-25.941-12.544-51.988-34.831-67.319c-22.287-15.331-48.799-26.261-64.594-48.221
	C-9.167,218.284-1.545,171.91,23.62,142.521c25.164-29.389,63.885-44.02,102.182-49.526c38.296-5.507,77.234-3.037,115.902-4.378
	c77.284-2.681,153.139-20.566,229.806-30.676c25.822-3.405,52.669-5.842,77.422,2.259c24.754,8.102,46.971,29.39,48.234,55.405
	c0.788,16.225-6.377,31.648-9.729,47.543c-13.219,62.701,33.271,125.697,23.352,189.003c-4.332,27.651-19.852,53.384-42.285,70.118
	c-22.434,16.735-65.341,25.248-101.801,25.248"/>
<path fill="#FF7F69" d="M438.713,447.517H208.441V308.525c0-50.097,40.611-90.709,90.708-90.709h48.855
	c50.098,0,90.709,40.612,90.709,90.709V447.517z"/>
<path fill="#002F54" d="M299.173,171.373c-14.91-15.572-30.264-41.444-33.257-62.793c-1.847-13.171-3.227-27.676,4.122-38.76
	c7.281-10.981,21.039-15.401,33.858-18.45c19.467-4.629,42.226-7.11,57.441,5.885c9.735,8.314,14.138,21.481,14.959,34.256
	c2.116,32.904-7.222,74.795-37.896,86.889L299.173,171.373z"/>
<path fill="#FFCBC2" d="M277.486,138.33c0,0-6.359-7.673-10.477-1.538c-4.119,6.136,4.129,21.604,14.421,20.324"/>
<path fill="#FFCBC2" d="M369.823,140.981c0,25.541-20.705,46.246-46.246,46.246c-25.54,0-46.245-20.705-46.245-46.246
	s10.185-61.23,46.245-61.23C365.67,79.75,369.823,115.44,369.823,140.981"/>
<path fill="#FFCBC2" d="M352.046,222.247c0,15.728-12.736,28.482-28.465,28.482c-15.728,0-28.481-12.754-28.481-28.482
	c0-1.14,0.066-3.205,0.197-4.295c6.162-4.527,10.376-11.234,12.54-19.445c1.189-4.444,1.784-9.07,1.751-13.448
	c4.411,1.405,9.12,2.164,13.993,2.164c4.956,0,9.731-0.776,14.192-2.23c-0.05,4.428,0.544,9.136,1.767,13.646
	c2.147,8.062,6.261,14.621,12.275,19.131C351.981,218.927,352.046,221.058,352.046,222.247"/>
<path fill="#002F54" d="M373.418,115.951l-2.11,12.92l-1.49,9.11h-0.06c-21.71,1.62-41.76-9.43-58.67-23.72
	c-7.28,12.27-15.29,24-33.68,24c-2.93-29.15,10.33-67.26,46.56-67.26c8.3,0,15.37,1.58,21.33,4.34l11.39-7.76l16.18,31.06
	L373.418,115.951z"/>
<path fill="#002F54" d="M369.758,137.981h0.06c-0.02,0.1-0.04,0.19-0.06,0.28V137.981z"/>
<path fill="#002F54" d="M371.308,128.871c-0.28,3.13-0.78,6.19-1.49,9.11L371.308,128.871z"/>
<path fill="#FFB3A6" d="M338.401,193.303c-4.642,1.586-9.632,2.445-14.818,2.445c-5.122,0-10.045-0.826-14.654-2.379
	c0.463-2.792,0.677-5.6,0.66-8.31c4.412,1.405,9.12,2.164,13.994,2.164c4.955,0,9.73-0.776,14.19-2.23
	C337.74,187.686,337.956,190.494,338.401,193.303"/>
<path fill="#002F54" d="M310.789,10.744c3.365,8.666,7.221,39.411-1.445,42.776c-8.666,3.366-26.572-21.922-29.937-30.588
	c-3.366-8.667,0.931-18.42,9.597-21.785C297.669-2.22,307.423,2.078,310.789,10.744"/>
<path fill="#002F54" d="M448.281,292.505H198.874c-10.174,0-18.422,8.247-18.422,18.422v136.59h286.251v-136.59
	C466.703,300.752,458.455,292.505,448.281,292.505"/>
<path fill="#99ACBB" d="M331.148,375.761c0,4.181-3.39,7.571-7.571,7.571c-4.181,0-7.571-3.391-7.571-7.571s3.391-7.571,7.571-7.571
	C327.758,368.19,331.148,371.581,331.148,375.761"/>
<path fill="#FFFFFF" d="M520.957,290.42c0,0-3.845,18.932-0.813,30.024c0,0,9.243,4.437,14.863,4.954c0,0-3.846-13.697-2.293-21.639
	C532.714,303.76,523.544,300.477,520.957,290.42"/>
<path fill="#FFCBC2" d="M526.588,307.746c-0.864-0.058-2.046-1.318-2.668-1.919c-0.623-0.603-1.312-1.242-2.172-1.328
	c0.242-0.416,0.742-0.586,1.224-0.578c0.481,0.007,0.947,0.161,1.42,0.251c0.474,0.09,0.991,0.108,1.407-0.134
	c0.486-1.402,0.844-2.727,0.821-4.188c0,0,1.074,0,1.946,1.007c0.873,1.008,0.975,1.344,1.512,1.611c0,0-0.471,3.694-1.745,5.204
	c0,0-0.069,1.757,0.116,3.55c0.247,2.403-2.022,0.612-2.022,0.612L526.588,307.746z"/>
<path fill="#99ACBB" d="M525.649,322.262c1.525,0.617,3.068,1.19,4.633,1.682c1.564,0.485,3.155,0.908,4.76,1.089l-0.389,0.466
	c-0.896-3.564-1.592-7.159-2.036-10.799c-0.209-1.818-0.383-3.646-0.396-5.479c-0.018-1.831,0.061-3.672,0.42-5.475l0.049,0.086
	c-1.777-0.734-3.397-1.773-4.883-2.97c1.513,1.155,3.166,2.15,4.934,2.827l0.061,0.023l-0.01,0.063
	c-0.309,1.794-0.338,3.622-0.272,5.438c0.063,1.817,0.283,3.628,0.539,5.429c0.535,3.598,1.326,7.168,2.304,10.659l0.145,0.512
	l-0.531-0.046c-1.695-0.147-3.332-0.539-4.94-0.99c-1.607-0.459-3.187-0.998-4.748-1.582L525.649,322.262z"/>
<path fill="#FFFFFF" d="M249.772,384.043c-1.205,1.028-3.242,0.619-4.187-0.652c-0.944-1.272-0.868-3.116-0.079-4.489
	c0.79-1.373,2.18-2.317,3.658-2.888c1.478-0.569,3.059-0.805,4.621-1.067c1.555-0.26,3.421-0.557,4.525,0.567
	c2.228,2.269,0.894,4.888-0.145,6.25s-2.485,0.537-4.047,1.238"/>
<g opacity="0.5">
	<g>
		<defs>
			<rect id="SVGID_1_" x="244.895" y="375.252" width="10.313" height="9.372"/>
		</defs>
		<clipPath id="SVGID_2_">
			<use xlink:href="#SVGID_1_"  overflow="visible"/>
		</clipPath>
		<path clip-path="url(#SVGID_2_)" fill="#99ACBB" d="M255.208,382.704c-0.347,0.05-0.727,0.132-1.091,0.297l-4.344,1.041
			c-1.206,1.024-3.238,0.628-4.18-0.645c-0.959-1.271-0.876-3.122-0.083-4.494c0.793-1.371,2.181-2.313,3.651-2.891
			c0.942-0.363,1.933-0.594,2.924-0.76c-0.017,0.116-0.049,0.215-0.082,0.331c-0.215,0.578-0.644,1.041-1.057,1.503
			c-0.413,0.463-0.827,0.958-0.975,1.569c-0.215,0.859,0.182,1.784,0.826,2.412c0.644,0.611,1.503,0.941,2.362,1.172
			C253.837,382.422,254.53,382.539,255.208,382.704"/>
	</g>
</g>
<rect x="261.044" y="422.36" transform="matrix(0.9399 -0.3416 0.3416 0.9399 -128.7915 118.6367)" fill="#15828D" width="22.875" height="5.343"/>
<rect x="274.304" y="422.779" transform="matrix(0.3417 0.9398 -0.9398 0.3417 580.2595 18.4293)" fill="#2AD4C6" width="5.342" height="1.24"/>
<rect x="265.577" y="425.951" transform="matrix(0.3416 0.9399 -0.9399 0.3416 577.545 28.7567)" fill="#2AD4C6" width="5.344" height="1.238"/>
<path fill="#FFCBC2" d="M268.306,425.56c0.22-0.606,0.914-0.922,1.56-0.95c0.645-0.028,1.278,0.158,1.919,0.236
	c0.641,0.077,1.352,0.023,1.835-0.406c0.174,0.348,0.031,0.784-0.231,1.07c-0.262,0.287-0.621,0.46-0.963,0.645
	c-0.342,0.184-0.688,0.396-0.89,0.729"/>
<path fill="#FFCBC2" d="M267.437,427.574c0.959,0.71,2.149,1.415,3.106,1.753c0.956,0.337,1.919,0.24,2.481-0.098
	c0.563-0.338,1.808-1.021,1.973-2.171c0,0-1.246-0.006-2.068-0.439c-1.49-0.786-1.999-2.504-4.574-1.215L267.437,427.574z"/>
<path fill="#F2F4F6" d="M79.99,323.809c-4.703-2.417-10.096-3.875-15.3-2.938c-5.203,0.938-10.096,4.649-11.379,9.78
	c-1.917,7.662,4.224,14.777,9.872,20.301c5.955,5.825,11.911,11.648,17.866,17.474c3.98,3.893,8.58,7.607,14.405,5.44
	c3.707-1.38,5.354-4.073,5.747-7.911c1.05-10.227-1.588-21.313-7.387-29.777C90.285,331.027,85.559,326.671,79.99,323.809"/>
<path fill="#FFB3A6" d="M264.948,223.32l2.396-1.718c0,0,6.773-3.128,8.237-0.596c0,0-7.834,3.126-8.942,4.273L264.948,223.32z"/>
<path fill="#002F54" d="M259.083,221.916c24.424,3.22,21.437,37.6,21.437,37.6l-2.825,1.177c-0.588-3.412-4.001-10.943-7.06-17.651
	c0,0-7.245-6.744-16.593-7.649l-11.508-4.297"/>
<path fill="#002F54" d="M265.741,272.931l-2.759,1.403c-3.766-23.359-10.59-27.522-10.59-27.522
	c-8.656-1.124-13.381-5.519-15.744-9.549c1.603,0.94,3.668,0.925,5.419,0.313c1.933-0.678,3.568-1.981,5.105-3.32
	c3.155-2.76,6.327-5.601,9.087-8.772l1.783,4.84C269.921,244.333,265.741,272.931,265.741,272.931"/>
<path fill="#002F54" d="M265.741,272.931l-1.371,0.693c0.463-4.841,0.843-9.714,0.397-14.555
	c-0.496-5.303-2.049-10.622-5.271-14.852c-3.171-4.13-7.847-7.138-10.523-11.531c2.544-2.28,5.055-4.642,7.286-7.203l1.783,4.84
	C271.038,241.77,265.741,272.931,265.741,272.931"/>
<path fill="#FF7F69" d="M234.762,205.283c4.194-2.365,6.223-2.938,10.248-5.579c4.026-2.642,7.615-6.147,9.598-10.535
	c0.771-1.703,1.295-3.572,1.106-5.432c-0.188-1.86-1.185-3.707-2.844-4.569c-1.277-0.663-2.774-0.689-4.191-0.93
	c-1.418-0.242-2.938-0.831-3.564-2.126c-0.903-1.867,0.485-3.961,0.982-5.974c0.756-3.059-0.878-6.537-3.715-7.909
	c-2.836-1.371-6.577-0.492-8.505,1.999c-2.059,2.659-1.982,6.486-3.915,9.237c-2.54,3.613-7.557,4.225-11.408,6.387
	c-4.681,2.628-7.704,7.967-7.549,13.333c0.156,5.366,3.482,10.522,8.308,12.874C224.138,208.412,230.086,207.918,234.762,205.283"/>
<path fill="#FFB3A6" d="M267.344,221.601l-1.305,0.941c-9.649-17.28-16.223-23.459-16.223-23.459
	c-0.711-3.403,1.888-6.243,2.235-5.715C257.552,201.827,263.66,212.217,267.344,221.601"/>
<path fill="#FFFFFF" d="M259.083,221.916c-0.876,1.239-1.818,2.428-2.825,3.567c-2.76,3.173-5.931,6.015-9.086,8.773
	c-1.537,1.338-3.173,2.643-5.106,3.321c-1.75,0.61-3.815,0.627-5.418-0.314c-1.388-2.33-1.966-4.544-2.082-5.948
	c-0.562-7.566,0.281-14.935-1.619-22.27c-0.942-3.634-0.529-8.905,1.9-11.779c4.13-4.907,12.456-6.691,13.911-6.377
	c1.189,0.264,2.499,1.521,3.292,2.479c-1.419,1.6-2.818,3.533-2.235,5.715c0.347,1.339,1.14,2.495,1.883,3.651
	c0.76,1.14,1.52,2.33,1.8,3.668c0.183,0.81,0.15,1.685-0.131,2.462c-0.182,0.512-0.479,0.958-0.892,1.321
	C255.697,213.457,257.959,217.487,259.083,221.916"/>
<path fill="#FFCBC2" d="M245.768,184.628c0,0-1.833,1.52-2.726,2.148c-0.165,0.116-0.347,0.231-0.512,0.347
	c-1.504,3.056-1.834,6.658-0.909,9.945c0,0-2.32,1.377-5.303-1.289c0,0,1.404-4.708,1.14-6.062
	c-0.033-0.215-0.099-0.413-0.149-0.562c-0.413-1.09-1.272-1.999-2.312-2.511c-0.661-0.314-1.421-0.48-2.032-0.893
	c-0.612-0.413-1.058-1.222-0.744-1.899c0.182-0.397,0.595-0.645,1.008-0.744c0.429-0.099,0.875-0.066,1.305-0.033
	c-0.81-0.644-0.826-1.949-0.314-2.858c0.496-0.909,1.388-1.536,2.247-2.131c0.859-0.595,1.734-1.239,2.197-2.181
	c0.297-0.611,0.38-1.321,0.264-1.982c0.942,1.041,1.851,2.098,2.693,3.205c1.008,1.354,1.933,2.759,2.76,4.246
	C244.892,182.282,245.768,184.628,245.768,184.628"/>
<path fill="none" stroke="#7E96A9" stroke-width="0.25" stroke-miterlimit="10" d="M232.75,208.137
	c-0.016-0.017-0.016-0.05-0.033-0.066"/>
<path fill="#FFB3A6" d="M239.301,187.841c0.115-0.71,4.616-2.42,6.45-3.229l0.017,0.016c0,0-1.834,1.52-2.726,2.148
	c-0.165,0.116-0.347,0.231-0.512,0.347c-0.571,1.162-0.972,2.405-1.199,3.679"/>
<path fill="#FFB3A6" d="M266.039,222.543l-1.091,0.777c0,0-5.17-8.558-11.58-14.456c0.28-0.777,0.314-1.652,0.131-2.462
	c-0.28-1.338-1.04-2.527-1.8-3.667c-0.743-1.157-1.536-2.313-1.883-3.651C249.816,199.084,256.39,205.262,266.039,222.543"/>
<path fill="#002F54" d="M262.982,274.335c0.235,1.579,0.235,2.013,0.235,2.013l10.201-3.776c0,0-0.564-1.996-2.214-1.605
	c-1.649,0.391-5.463,1.965-5.463,1.965L262.982,274.335z"/>
<path fill="#002F54" d="M277.653,260.483c0.235,1.579,0.235,2.014,0.235,2.014l10.201-3.776c0,0-0.564-1.997-2.214-1.605
	c-1.649,0.39-5.463,1.964-5.463,1.964L277.653,260.483z"/>
<path fill="#FFCBC2" d="M261.641,242.338c-0.858-0.054-2.031-2.686-2.665-3.309c-0.179-0.075-0.533,0.091-0.77,0.214
	c-0.491,0.243-0.933,0.537-1.467,0.629c-0.984,0.188-1.826-1.337-2.198-2.263c-0.312-0.791-0.211-2.343-0.682-3.272
	c-0.998-2.127-2.337-4.006-3.755-5.954c-4.331-6.013-10.131-11.379-14.277-17.466c0.531-1.894,1.876-3.522,3.653-4.435
	c1.338-0.702,2.935-0.929,4.429-0.681c2.708,6.817,4.857,13.18,8.304,20.509c0.98,2.145,1.954,4.419,3.223,6.774
	c1.081,1.354,1.716,1.944,2.952,3.157C259.607,237.453,261.545,240.383,261.641,242.338"/>
<path fill="#FFB3A6" d="M257.208,239.745c-0.151,0.061-0.302,0.103-0.469,0.128c-0.984,0.188-1.826-1.337-2.198-2.263
	c-0.312-0.792-0.211-2.342-0.682-3.272c-0.998-2.128-2.337-4.006-3.755-5.954c-4.331-6.013-10.131-11.378-14.277-17.466
	c0.375-1.34,1.155-2.545,2.22-3.457c1.505,4.862,4.489,9.178,7.548,13.299c3.279,4.394,6.724,8.747,8.798,13.833
	c0.476,1.195,0.885,2.422,1.531,3.524C256.26,238.71,256.7,239.276,257.208,239.745"/>
<path fill="#FFFFFF" d="M261.167,394.667c1.165-0.008,2.315,0.618,2.941,1.602c0.626,0.981,0.707,2.289,0.208,3.341
	c0.549-0.392,1.126-0.773,1.574-1.278c0.448-0.505,0.786-1.136,0.819-1.81c0.049-1.006-0.612-1.961-1.496-2.443
	c-0.883-0.481-1.948-0.545-2.94-0.371c1.869-2.657,1.129-6.582-1.088-8.956c-2.217-2.374-5.811-3.201-8.971-2.448
	c-1.635,0.39-3.226,1.208-4.22,2.563c-0.895,1.219-1.23,2.748-1.544,4.229c-0.305,1.438-0.606,2.964-0.124,4.353
	c0.39,1.121,1.296,2.051,2.407,2.469c1.111,0.418,2.405,0.316,3.437-0.27"/>
<path fill="#FFCBC2" d="M252.528,402.61c3.77-1.449,6.983-4.3,8.871-7.871c-0.404-2.225-2.089-4.145-4.253-4.802
	s-4.671-0.007-6.243,1.619c0.361-0.884,0.184-2.181-0.744-2.405c-0.655-0.159-1.323,0.36-1.56,0.99
	c-0.238,0.631-0.15,1.333-0.034,1.997C249.211,395.834,250.446,399.487,252.528,402.61"/>
<path fill="#FFCBC2" d="M237.654,393.891c1.982-0.083,3.932,0.347,5.898,0.545c1.966,0.182,4.047,0.083,5.732-0.975l2.925,6.757
	c-2.875-1.206-6.295-1.091-9.087,0.331"/>
<path fill="#FFFEFF" d="M237.654,393.891l8.418,17.647c-12.652-0.229-13.217,13.324-13.217,13.324l-18.793,10.825
	c-1.652-7.07-1.139-14.653,1.487-21.427c2.61-6.79,7.302-12.754,13.266-16.901C231.459,395.542,234.449,394.023,237.654,393.891"/>
<path fill="#FFB3A6" d="M249.518,396.117c0.385,1.258,0.854,2.488,1.419,3.666c-0.843-0.231-1.718-0.363-2.593-0.38
	C248.343,399.403,248.49,397.569,249.518,396.117"/>
<path fill="#FFFEFF" d="M284.513,446.594c0.164,0.069,0.119,0.303-0.059,0.303h-17.988c-2.439,0-4.342-2.3-3.659-4.822
	c0.452-1.668,2.066-2.761,3.795-2.761h17.853c0.178,0,0.222,0.233,0.059,0.304c-1.351,0.58-2.303,1.927-2.303,3.496
	C282.211,444.67,283.162,446.015,284.513,446.594"/>
<path fill="#2AD4C6" d="M285.074,447.517h-18.608c-1.388,0-2.669-0.634-3.515-1.738c-0.839-1.097-1.11-2.506-0.742-3.866
	c0.514-1.895,2.32-3.218,4.393-3.218h18.473v1.239h-18.473c-1.515,0-2.829,0.947-3.197,2.303c-0.266,0.984-0.073,2.001,0.53,2.789
	c0.609,0.796,1.532,1.252,2.531,1.252h18.608V447.517z"/>
<path fill="#FFFEFF" d="M263.213,432.649c-0.12-0.053-0.088-0.225,0.043-0.225h18.088c1.797,0,3.199,1.695,2.696,3.553
	c-0.333,1.229-1.522,2.034-2.795,2.034h-17.989c-0.131,0-0.164-0.172-0.043-0.223c0.995-0.427,1.696-1.42,1.696-2.576
	C264.909,434.066,264.208,433.076,263.213,432.649"/>
<path fill="#FF7F69" d="M281.245,438.631h-18.609v-1.239h18.609c1.042,0,1.946-0.647,2.197-1.577
	c0.183-0.675,0.051-1.372-0.362-1.912c-0.418-0.546-1.05-0.858-1.735-0.858h-18.708v-1.239h18.708c1.074,0,2.065,0.49,2.718,1.344
	c0.65,0.85,0.86,1.939,0.575,2.99C284.241,437.607,282.846,438.631,281.245,438.631"/>
<path fill="#FFFEFF" d="M227.146,423.301c2.447-1.779,10.564-3.201,16.997,1.078c7.792,4.913,13.951,7.426,23.61,7.426l0.552-6.245
	c-8.73-2.041-13.382-4.884-17.498-7.644c-1.227-5.087-2.469-10.218-4.735-14.936c-2.266-4.716-5.653-9.075-10.287-11.507
	c-1.245-0.652-1.75,0.425-1.031,3.239"/>
<path fill="#D9E0E6" d="M244.143,424.379c-2.467-3.704-3.974-6.424-6.489-9.59c-3.762,3.808-8.637,0.899-10.759,3.915
	c-1.123,1.595-1.63,3.778-0.763,5.526"/>
<path fill="#FF7F69" d="M259.577,443.337c-0.115,2.527-2.528,2.77-4.395,4.18h-48.976c0,0,0.328-1.895,2.591-2.372
	c3.262-0.686,3.829,0.792,5.266-1.042s2.923-2.501,4.68-1.607c2.614,1.33,2.206,2.302,5.081,1.904
	c0.941-0.132,2.232-0.848,5.206-1.873c6.146-2.113,15.414-4.427,22.617,0.149c-2.329-3.155-5.154-5.303-8.64-7.104
	c-3.486-1.783-7.153-3.271-10.458-5.368c-2.61-1.652-5.022-3.768-6.608-6.36c4.196-2.099,8.029-1.966,11.664-1.487
	c9.251,1.223,16.801,8.972,20.964,17.33C259.131,440.827,259.643,442.065,259.577,443.337"/>
<path fill="#DD7265" d="M251.647,442.676c-7.204-4.576-16.471-2.264-22.618-0.148c-8.424-2.742-14.967-6.839-14.967-6.839
	c4.295-6.478,8.228-10.013,11.879-11.847c1.586,2.594,3.998,4.709,6.608,6.361c3.304,2.098,6.971,3.585,10.458,5.369
	C246.493,437.374,249.317,439.522,251.647,442.676"/>
<path fill="#002F54" d="M149.363,445.192c0,0-1.415,1.583-2.043,1.84c0,0-8.765-4.57-9.081-9.105c0,0,2.236-1.569,3.799,0.421
	c1.255,1.598,4.326,5.007,5.993,4.973"/>
<path fill="#002F54" d="M150.671,443.233c0,0-1.938,0.866-2.617,0.845c0,0-6.132-7.755-4.566-12.021c0,0,2.681-0.52,3.294,1.937
	c0.493,1.971,1.903,6.337,3.438,6.988"/>
<path fill="#99ACBB" d="M180.896,388.66c-0.889,5.319-12.081,35.632-24.028,47.766c-1.504,1.528-6.698,8.256-7.505,8.767
	c-0.843-0.433-1.54-1.276-1.955-1.987c0,0,0.582-1.407,0.991-2.24c1.248-2.544,5.933-13.41,10.068-32.866
	c2.6-12.232,2.398-19.8,2.398-19.8L180.896,388.66z"/>
<path fill="#BFCBD4" d="M140.878,368.479c-3.43-0.225-6.931,1.042-9.425,3.407c5.686-1.288,11.712,0.073,16.632,3.201"/>
<path fill="#D9E0E6" d="M146.355,375.255c0.236,0.339,0.472,0.679,0.708,1.018c-3.829-4.973-9.397-8.578-15.501-10.036
	c4.221-2.206,8.939-3.165,13.649-2.453c5.378,0.812,8.134,7.272,10.349,12.24c-0.084-0.081-0.167-0.162-0.251-0.242"/>
<path fill="#FFCBC2" d="M148.608,377.262c-0.94-0.358-1.933-0.552-2.898-0.835c-0.965-0.284-1.926-0.669-2.674-1.342
	s-0.528-2.269-0.395-3.266c1.378,0.474,2.412,2.233,3.928,1.892c0.583-0.209,1.021-0.893,0.928-1.505
	c-0.137-0.893,0.109-1.555,0.754-1.732c0.161,1.538,0.777,1.986,0.811,3.102c0.012,0.4-0.017,0.812,0.115,1.189
	c0.131,0.378,0.483,0.719,0.88,0.679"/>
<path fill="#002F54" d="M161.99,346.289c-0.09,0.057-0.194,0.095-0.298,0.133c-1.127,0.425-2.583,0.063-3.217-0.971
	c-0.266-0.445-0.375-0.956-0.538-1.439c-0.162-0.483-0.389-0.99-0.805-1.286c-0.416-0.295-1.062-0.317-1.388,0.079
	c-0.248,0.288-0.246,0.721-0.102,1.068c0.144,0.35,0.456,0.533,0.582,0.896c0.201,0.587-0.492,1.142-1.112,1.189
	c-0.621,0.047-1.241-0.204-1.863-0.141c-1.376,0.114-2.237,1.581-2.471,2.951c-0.155,0.946-0.147,1.929-0.303,2.876
	c-0.061,0.408-0.156,0.813-0.317,1.211c-0.937,2.306-3.759,3.323-6.255,3.196c-2.016-0.107-4.033-0.797-5.599-2.117
	c-1.552-1.302-2.601-3.23-2.69-5.269c-0.073-1.603,0.536-3.348,1.912-4.209c1.837-1.126,4.559-0.492,6.014-2.076
	c0.945-1.024,0.951-2.57,1.232-3.919c0.649-3.003,3.031-5.598,6.016-6.28c2.983-0.667,6.38,0.772,7.793,3.473
	c1.055,2.029,1.006,4.417,1.541,6.637C160.479,343.728,161.126,345.08,161.99,346.289"/>
<path fill="#FFCBC2" d="M169.432,351.269l-6.359,3.833c-0.746-1.662-2.217-2.938-3.952-3.479c-0.453,0.78-0.906,1.577-1.342,2.36
	c-0.267,0.453-0.551,0.92-0.982,1.204c-0.57,0.354-1.298,0.322-1.943,0.134c-1.866-0.556-3.068-2.151-4.379-3.677
	c0.155-0.947,0.147-1.928,0.302-2.875c0.235-1.37,1.096-2.837,2.472-2.951c0.621-0.063,1.242,0.188,1.862,0.141
	c0.621-0.048,1.314-0.603,1.113-1.189c-0.126-0.364-0.438-0.548-0.583-0.896c-0.144-0.349-0.145-0.781,0.103-1.069
	c0.326-0.396,0.972-0.374,1.388-0.079c0.416,0.296,0.642,0.802,0.805,1.286c0.163,0.482,0.272,0.994,0.538,1.438
	c0.634,1.035,2.089,1.396,3.217,0.973c0.104-0.039,0.208-0.077,0.298-0.133C163.739,348.793,166.428,350.637,169.432,351.269"/>
<path fill="#FFB3A6" d="M157.732,351.321c0.129-0.422,0.241-0.851,0.351-1.276c1.388-0.079,2.683,0.829,3.47,1.98
	c0.427,0.645,0.744,1.379,0.978,2.119c-0.815-1.188-2.029-2.086-3.41-2.522c-0.453,0.781-0.906,1.579-1.342,2.361
	c-0.267,0.453-0.551,0.92-0.982,1.205c-0.57,0.352-1.298,0.321-1.943,0.133c-0.047-0.021-0.096-0.027-0.127-0.047
	c0.676-0.257,1.297-0.754,1.76-1.334C157.077,353.167,157.445,352.261,157.732,351.321"/>
<path fill="#002F54" d="M180.896,388.66c-2.357,1.168-6.659,1.589-9.3,1.728c-4.43,0.224-8.768-0.972-13.043-2.144
	c1.988-2.938,2.192-6.738,1.734-10.246c-0.458-3.525-1.491-6.947-1.764-10.484c-0.218-3.133,0.186-6.329,1.468-9.196
	c1.297-2.848,3.517-5.328,6.34-6.66c2.21-1.035,4.886-1.337,7.039-0.218c2.704,1.397,3.936,4.525,4.744,7.441
	C180.737,368.496,182.554,378.803,180.896,388.66"/>
<path fill="#FFFFFF" d="M169.365,387.682c3.317-8.637,4.61-18.129,3.097-27.257c-0.225-1.357-0.519-2.728-1.172-3.94
	c-0.653-1.213-1.714-2.263-3.042-2.625c-2.009-0.549-4.188,0.627-5.366,2.344c-1.178,1.717-1.542,3.858-1.691,5.937
	c-0.4,5.579,0.554,11.267,2.864,16.36c-4.564-1.811-9.175-2.934-14.035-3.636c-1.761,0.549-2.14,3.203-2.106,3.099
	c4.09,3.149,8.371,6.1,13.05,8.278C163.489,387.416,166.656,388.329,169.365,387.682"/>
<path fill="#40637F" d="M162.743,429.031c7.91-11.758,14.678-28.757,17.18-36.729c-2.005,2.872-3.747,4.36-6.833,5.755
	C172.201,407.558,162.743,429.031,162.743,429.031"/>
<path fill="#BFCBD4" d="M170.788,383.497c-0.413,1.421-0.892,2.809-1.421,4.18c-2.709,0.644-5.881-0.266-8.409-1.438
	c-4.675-2.18-8.954-5.121-13.051-8.275c0-0.051,0.116-0.811,0.512-1.586c3.452,2.313,6.955,4.592,10.838,6.047
	C162.923,383.793,167.004,384.388,170.788,383.497"/>
<path fill="#FFCBC2" d="M479.309,353.871c0.514-1.135,0.356-2.472-0.061-3.645c-0.417-1.174-1.075-2.246-1.579-3.385
	c-0.805-1.823-1.209-3.821-1.175-5.813c0.624,0.318,0.842,2.604,1.264,3.906c0.161-1.815-0.983-3.505-0.71-5.308
	c0,0,0.265-0.052,0.404,0.176c0.04-0.162,0.058-0.234,0.098-0.397c0.38,0.108,0.683,0.406,0.88,0.749
	c0.198,0.342,0.304,0.728,0.41,1.107c0.531,1.877,0.257,0.882,0.531,1.877c0,0-0.158-0.713-0.189-1.96
	c-0.007-0.295-0.104-1.467,0.19-1.437c0.231,0.022,0.507,0.549,0.541,0.78l0.643,4.346c0.036,0.244,0.088,0.516,0.289,0.66
	c0.308,0.221,0.754-0.017,0.952-0.341c0.198-0.322,0.256-0.716,0.45-1.042c0.193-0.324,0.631-0.572,0.947-0.362
	c-0.593,1.563-1.184,3.127-1.775,4.689c-0.202,0.534-0.405,1.073-0.494,1.638c-0.17,1.071,0.081,2.171-0.017,3.252"/>
<path fill="#002F54" d="M511.619,416.105c1.051,9.775,4.503,18.755,2.146,31.412l-10.602-0.424c0,0-0.018-2.465,1.777-2.548
	c1.671-0.098,5.542,0.294,6.078,0.361c-6.42-15.807-13.654-41.146-16.845-57.761l3.199-3.762c3.026-6.188,2.764-3.143,8.988-1.732
	C508.49,399.643,510.365,404.4,511.619,416.105"/>
<path fill="#FF7F69" d="M487.93,364.837c-0.434-0.999-0.867-1.997-1.33-2.996"/>
<path fill="#002F54" d="M498.233,416.299c-1.229,9.754,0.061,19.287-5.149,31.061l-10.219-2.855c0,0,0.55-2.402,2.315-2.069
	c1.649,0.289,5.325,1.563,5.832,1.751c-2.605-16.859-5.137-41.4-4.413-58.303l5.31-4.707c4.371-5.325,3.923-9.045,9.653-6.237
	C506.424,391.957,499.71,404.62,498.233,416.299"/>
<path fill="#FFFFFF" d="M529.042,309.904c1.864,11.49-0.228,19.507-7.052,28.938c-3.068,4.243-6.898,7.958-9.423,12.546
	c-4.741,8.625-6.819,20.442-6.208,30.265c-6.354,2.549-13.404,1.683-19.761,4.232c0.449-8.813,3.045-17.311,3.045-17.311
	c-1.078,1.701-2.198,3.448-3.845,4.608s-3.97,1.599-5.673,0.523c-2.072-1.311-2.412-4.147-2.464-6.599
	c-0.079-3.733,0.015-7.471,0.281-11.194c0.084-1.169,0.218-2.416,0.973-3.312c0.755-0.895,2.36-1.146,3.033-0.188
	c0.344,2.977,0.688,5.952,1.031,8.929c2.644-9.638,11.635-17.193,21.584-18.137c2.578-2.942,5.643-5.109,8.222-8.053
	c3.041-3.47,6.1-6.965,8.454-10.933c2.354-3.968,3.987-8.48,3.91-13.093"/>
<path fill="#FFCBC2" d="M497.938,327.559c-2.599,3.033-5.069,6.51-5.702,11.556c0,0,1.438,0.896,3.604,1.148
	c0,0,0.936,4.13-0.276,5.691c0,0,1.13,2.563,4.106,2.569c2.425,0.004,3.149-1.886,3.149-1.886s-1.714-1.83-0.728-5.658"/>
<path fill="#FF7F69" d="M498.704,322.439c-1.596,1.718-1.719,4.417-1.104,6.994c0.613,2.577,0.297,6.38-0.342,7.239
	c0.798-0.187,2.61-0.69,2.712,0.82c0.1,1.512-2.115,1.712-3.374,1.311c0,0-0.296,3.827,3.377,5.086s8.91-2.418,9.716-4.936
	s-0.604-4.733-0.604-4.733s1.058-3.224-1.008-5.136C506.012,327.17,499.364,327.019,498.704,322.439"/>
<path fill="#FFCBC2" d="M526.588,307.746c-0.864-0.058-2.046-1.318-2.668-1.919c-0.623-0.603-1.312-1.242-2.172-1.328
	c0.242-0.416,0.742-0.586,1.224-0.578c0.481,0.007,0.947,0.161,1.42,0.251c0.474,0.09,0.991,0.108,1.407-0.134
	c0.486-1.402,0.844-2.727,0.821-4.188c0,0,1.074,0,1.946,1.007c0.873,1.008,0.975,1.344,1.512,1.611c0,0-0.471,3.694-1.745,5.204
	c0,0-0.069,1.757,0.116,3.55c0.247,2.403-2.022,0.612-2.022,0.612L526.588,307.746z"/>
<path fill="#FFFFFF" d="M391.681,248.8c0.747-2.402,1.246-4.946,0.863-7.434c-0.383-2.488-1.771-4.921-4.015-6.062
	c-2.244-1.14-5.343-0.649-6.763,1.43c0.704-0.101,1.105,0.215,1.277,0.839c-3.134,0.115-6.275,2.446-7.121,5.467
	c-0.612,2.19-0.198,4.52-0.248,6.793c-0.05,2.274-0.783,4.819-2.81,5.853c1.207,0.548,2.348,1.186,3.653,1.418
	c1.305,0.232,2.713,0.135,3.859-0.53c1.147-0.665,1.97-1.969,1.826-3.287L391.681,248.8z"/>
<path fill="#FFCBC2" d="M398.224,252.07l-4.997,3.821c-0.784-1.33-2.142-2.268-3.654-2.562c-0.308,0.7-0.614,1.414-0.908,2.114
	c-0.184,0.405-0.378,0.825-0.715,1.104c-0.447,0.351-1.063,0.394-1.625,0.294c-1.622-0.294-2.784-1.524-4.03-2.687
	c0.042-0.813-0.057-1.639-0.015-2.45c0.07-1.176,0.658-2.492,1.807-2.716c0.518-0.112,1.063,0.042,1.582-0.056
	c0.518-0.099,1.05-0.63,0.825-1.105c-0.141-0.294-0.419-0.421-0.574-0.7c-0.153-0.28-0.195-0.644-0.014-0.911
	c0.237-0.363,0.784-0.405,1.162-0.195c0.378,0.211,0.615,0.615,0.798,1.008s0.321,0.812,0.588,1.163
	c0.63,0.812,1.89,0.979,2.8,0.517c0.084-0.042,0.168-0.084,0.237-0.14C393.2,250.515,395.635,251.818,398.224,252.07"/>
<path fill="#FFB3A6" d="M388.375,253.206c0.069-0.367,0.124-0.739,0.176-1.108c1.162-0.196,2.338,0.448,3.107,1.344
	c0.421,0.504,0.756,1.092,1.021,1.694c-0.797-0.924-1.902-1.568-3.106-1.806c-0.309,0.699-0.616,1.413-0.91,2.113
	c-0.182,0.406-0.378,0.826-0.714,1.106c-0.448,0.35-1.064,0.392-1.624,0.294c-0.042-0.014-0.084-0.014-0.111-0.028
	c0.545-0.28,1.021-0.756,1.357-1.288C387.997,254.822,388.221,254.023,388.375,253.206"/>
<path fill="#99ACBB" d="M401.567,282.742c-18.119-1.482-31.82,6.723-31.82,6.723s-2.99,22.229,1.3,32.628l2.99,2.08
	c0,0,0.13-17.354,7.799-25.187s15.194-2.855,22.51-6.005c8.168-3.517,7.024-10.493,7.024-10.493"/>
<polyline fill="none" stroke="#002F54" stroke-miterlimit="10" points="360.599,264.381 372.479,283.581 391.748,283.581 "/>
<path fill="#99ACBB" d="M374.05,324.173c0,2.239-1.543,2.062-1.543,2.062l-12.367-7.575c0,0,1.179-2.446,3.217-1.569
	c1.02,0.438,3.12,2.958,4.729,4.011s2.726,0.637,2.726,0.637L374.05,324.173z"/>
<path fill="#FFCBC2" d="M382.33,278.814c-1.079-0.82-2.337-1.437-3.679-1.632s-2.77,0.055-3.887,0.825
	c-1.116,0.769-1.877,2.083-1.846,3.438c0.536-0.274,1.091-0.555,1.691-0.6c0.764-0.057,1.494,0.271,2.232,0.469
	c1.529,0.411,3.202,0.263,4.634-0.411"/>
<path fill="#40637F" d="M396.807,294.202c-4.907,0.033-9.912-0.38-14.969,4.791c-7.666,7.831-7.798,25.179-7.798,25.179
	l-2.989-2.082c-0.363-0.876-0.678-1.817-0.926-2.842c-0.726-10.738,2.148-21.626,7.236-31.142
	C383.21,291.707,389.966,293.822,396.807,294.202"/>
<path fill="#F8F9F9" d="M373.805,322.166c1.641,1.524,0.459,2.534,0.459,2.534l-13.969,3.896c0,0-0.988-2.529,1.041-3.425
	c1.016-0.447,4.291-0.269,6.158-0.73c1.866-0.461,2.322-1.562,2.322-1.562L373.805,322.166z"/>
<path fill="#FFCBC2" d="M369.615,138.33c0,0,6.359-7.673,10.478-1.538c4.118,6.136-4.129,21.604-14.422,20.324"/>
<path fill="#002F54" d="M411.37,282.488c-1.877,1.204-5.46,2.726-7.672,3.089c-3.71,0.603-11.126-0.632-15.156-2.348
	c-0.442-3.864,5.189-4.884,4.476-7.796c-0.714-2.926-1.904-5.712-2.464-8.665c-0.477-2.618-0.434-5.348,0.378-7.882
	c0.826-2.52,2.464-4.815,4.718-6.201c1.764-1.078,3.989-1.582,5.907-0.84c2.408,0.924,3.738,3.444,4.69,5.824
	C409.353,265.522,411.845,274.033,411.37,282.488"/>
<path fill="#F8F9F9" d="M401.567,282.742c1.987-7.584,2.19-15.697,0.064-23.244c-0.317-1.122-0.692-2.25-1.355-3.21
	c-0.664-0.96-1.654-1.744-2.807-1.927c-1.743-0.273-3.468,0.919-4.301,2.476c-0.832,1.557-0.938,3.395-0.869,5.157
	c0.184,4.736,1.518,9.437,3.939,13.512c-5.992,0.758-10.241,3.166-14.4,3.028c-1.432,0.626-1.503,2.897-1.484,2.807
	C384.092,283.611,399.346,283.539,401.567,282.742"/>
</svg>
